<svg xmlns="http://www.w3.org/2000/svg" xmlns:xlink="http://www.w3.org/1999/xlink" width="580" zoomAndPan="magnify" viewBox="0 0 434.88 369.749991" height="493" preserveAspectRatio="xMidYMid meet" version="1.0"><defs><filter x="0%" y="0%" width="100%" height="100%" id="45fa4cab87"><feColorMatrix values="0 0 0 0 1 0 0 0 0 1 0 0 0 0 1 0 0 0 1 0" color-interpolation-filters="sRGB"/></filter><mask id="cb7c19dda8"><g filter="url(#45fa4cab87)"><rect x="-43.488" width="521.856" fill="#000000" y="-36.974999" height="443.699989" fill-opacity="0.73"/></g></mask><clipPath id="2a7f701981"><rect x="0" width="318" y="0" height="266"/></clipPath></defs><path fill="#bfca9f" d="M 405.160156 174.09375 C 399.921875 194.988281 385.226562 212.667969 367.4375 224.816406 C 349.648438 236.964844 328.875 244.039062 307.933594 249.085938 C 274.644531 257.097656 240.40625 260.285156 206.308594 263.460938 C 195.335938 264.480469 184.230469 265.5 173.339844 263.84375 C 152.601562 260.691406 133.660156 247.355469 123.707031 228.882812 C 113.753906 210.417969 113.039062 187.261719 121.8125 168.203125 L 119.570312 173.289062 C 121.667969 155.640625 139.148438 144.597656 154.792969 136.132812 C 172.546875 126.535156 190.285156 116.933594 208.039062 107.335938 C 216.855469 102.570312 225.828125 97.675781 232.691406 90.375 C 239.835938 82.769531 244.210938 73.0625 249.117188 63.855469 C 260.46875 42.558594 275.96875 22.492188 297.398438 11.402344 C 318.835938 0.308594 347.03125 0.0234375 365.613281 15.417969 C 379.242188 26.699219 385.84375 44.214844 390.890625 61.175781 C 397.230469 82.425781 402.03125 104.148438 405.253906 126.085938 C 407.601562 142.035156 409.082031 158.472656 405.160156 174.09375 Z M 405.160156 174.09375 " fill-opacity="1" fill-rule="nonzero"/><g mask="url(#cb7c19dda8)"><g transform="matrix(1, 0, 0, 1, 52, 100)"><g clip-path="url(#2a7f701981)"><path fill="#97b38f" d="M 315.460938 199.644531 C 302.234375 269.234375 229.160156 286.644531 165.140625 231.65625 C 101.121094 176.664062 90.679688 288.71875 32.21875 243.480469 C -26.242188 198.246094 14.121094 137 32.21875 113.34375 C 50.316406 89.675781 34.304688 23.570312 83.722656 5.476562 C 133.144531 -12.621094 178.152344 30.585938 200.648438 47.925781 C 212.664062 57.21875 328.6875 130.042969 315.460938 199.644531 Z M 315.460938 199.644531 " fill-opacity="1" fill-rule="nonzero"/></g></g></g></svg>