<?xml version="1.0" encoding="UTF-8"?>
<svg version="1.1" xmlns="http://www.w3.org/2000/svg" width="500" height="242">
<path d="M0 0 C0.99 0.33 1.98 0.66 3 1 C3.91575177 3.57880599 4.59731941 5.96832368 5.1875 8.625 C5.44684326 9.76340332 5.44684326 9.76340332 5.71142578 10.92480469 C7.57353825 19.74919973 8.94128399 29.61294768 5 38 C5.94875 38.103125 6.8975 38.20625 7.875 38.3125 C11 39 11 39 13 42 C13.4125 41.10796875 13.825 40.2159375 14.25 39.296875 C20.01624241 27.60993725 20.01624241 27.60993725 26.07421875 25.38671875 C29.12306963 24.77447486 31.11134572 24.83078279 34 26 C35.5625 27.9375 35.5625 27.9375 36 31 C35.12411999 35.15716185 33.9026922 39.19461561 32 43 C32.71027344 43.13277344 33.42054688 43.26554687 34.15234375 43.40234375 C35.07144531 43.57894531 35.99054688 43.75554688 36.9375 43.9375 C37.85402344 44.11152344 38.77054687 44.28554688 39.71484375 44.46484375 C42 45 42 45 43 46 C43.5 48.5625 43.5 48.5625 43 52 C40.64439432 55.30146269 37.86147764 58.13852236 35 61 C38.3 61 41.6 61 45 61 C45.23332031 60.22269531 45.46664062 59.44539063 45.70703125 58.64453125 C47.40988275 53.84465074 49.52009721 49.29282352 51.6875 44.6875 C52.09677734 43.78837891 52.50605469 42.88925781 52.92773438 41.96289062 C57.07218905 33.15831179 62.67273316 24.40406924 71 19 C74.81766143 17.70199511 76.18342279 17.60078448 79.8125 19.375 C82 21 82 21 83 22 C82.74772693 35.6227459 72.25843333 46.24475555 64.21166992 56.38696289 C62.92654009 57.9972335 62.92654009 57.9972335 62 60 C63.00901367 59.98952637 64.01802734 59.97905273 65.05761719 59.96826172 C68.80725547 59.93201503 72.5568783 59.90908257 76.30664062 59.89013672 C77.92841192 59.88008977 79.55016516 59.86644985 81.171875 59.84912109 C83.50525374 59.82481507 85.8383926 59.81350387 88.171875 59.8046875 C89.25647003 59.78920364 89.25647003 59.78920364 90.36297607 59.77340698 C94.05878539 59.77258645 96.91210091 59.85094748 100 62 C102.26301033 65.41214019 102.1751075 68.10294799 101.59375 72.1328125 C98.14244293 88.79899268 91.17109902 103.1555929 80 116 C79.53335938 116.60972656 79.06671875 117.21945313 78.5859375 117.84765625 C73.264279 124.67867403 65.7251427 130.39584644 57.875 134 C54.56671238 136.30141747 54.55144829 136.79975638 53.875 140.5625 C53.81054688 141.32691406 53.74609375 142.09132812 53.6796875 142.87890625 C53 145 53 145 50.81884766 146.55932617 C41.87298757 151.13143083 30.48642036 150.31953395 20.63427734 150.26074219 C18.5019896 150.25001001 16.3705439 150.26071342 14.23828125 150.2734375 C-8.48053884 150.30098659 -8.48053884 150.30098659 -16 145 C-17 143 -17 143 -16.89453125 141.15234375 C-16.79313806 138.4147275 -17.02478018 136.57765571 -18 134 C-20.70692164 131.45522342 -23.60641801 129.46605453 -26.66796875 127.36328125 C-36.96841791 120.25510775 -43.83294061 110.64878878 -50 100 C-50.49242187 99.15824219 -50.98484375 98.31648438 -51.4921875 97.44921875 C-54.87865898 91.1916084 -56.87294584 84.52707646 -58.88671875 77.734375 C-59.25410156 76.50203125 -59.62148437 75.2696875 -60 74 C-60.32355469 72.91074219 -60.64710938 71.82148437 -60.98046875 70.69921875 C-61.91156873 67.74435351 -61.91156873 67.74435351 -64.625 65.0625 C-67 62 -67 62 -67.5625 58.375 C-67 55 -67 55 -65.375 52.5625 C-62.36257342 50.58064041 -60.54231061 50.61496624 -57 51 C-56.34 51.33 -55.68 51.66 -55 52 C-57.24755037 47.76931695 -60.15693835 44.46397018 -63.37890625 40.96484375 C-66.10192975 37.66440804 -67.02982547 35.8351131 -66.875 31.5 C-65.90823677 27.63294707 -65.2351208 26.27332813 -62 24 C-59.125 22.9375 -59.125 22.9375 -56 23 C-50.11849589 26.62901318 -46.73861667 32.30358702 -43 38 C-40.9754262 36.06745228 -39.57894208 34.36841312 -38 32 C-36.1875 31.0625 -36.1875 31.0625 -34 31 C-30.7230706 33.13381449 -29.24993996 34.25018012 -28 38 C-27.92970879 40.57265818 -27.90629168 43.11641431 -27.9375 45.6875 C-27.94201172 46.38939453 -27.94652344 47.09128906 -27.95117188 47.81445312 C-27.96293073 49.54300538 -27.98086546 51.27151365 -28 53 C-26.84951172 51.78763672 -26.84951172 51.78763672 -25.67578125 50.55078125 C-22.91960954 47.92336501 -21.7021147 47.31732412 -18 47 C-15.3932727 49.54466236 -14.76671338 51.56583846 -14.6015625 55.08984375 C-14.58951758 56.70570316 -14.59838089 58.32181496 -14.625 59.9375 C-14.63080078 60.78417236 -14.63660156 61.63084473 -14.64257812 62.50317383 C-14.76734239 68.5952511 -15.61137751 74.18017112 -17.34375 80.04296875 C-19.066859 87.80721586 -17.58171249 93.09004246 -14.5 100.1875 C-10.49948513 109.54005503 -10.49948513 109.54005503 -11 114 C-13.22265625 113.9453125 -13.22265625 113.9453125 -16 113 C-17.70291013 110.62481056 -19.06857433 108.42863116 -20.4375 105.875 C-21.22081846 104.500064 -22.00854036 103.12762678 -22.80078125 101.7578125 C-23.17799316 101.10329102 -23.55520508 100.44876953 -23.94384766 99.77441406 C-27.5287585 93.75149866 -31.29921413 90.10950666 -38 88 C-39.32 88 -40.64 88 -42 88 C-36.50752903 99.83077446 -36.50752903 99.83077446 -29.12890625 110.51953125 C-28 112 -28 112 -27 115 C-25.68883466 115.70927263 -24.35116611 116.37026008 -23 117 C-21.64844647 118.08178781 -20.31633879 119.18812729 -19 120.3125 C-5.91435718 130.62630715 9.94748 132.09522935 26 131 C40.99161592 129.07965307 53.36679357 122.2135187 63 110.5859375 C72.45724227 97.74528528 75.59777726 83.31000231 79 68 C71.08 68 63.16 68 55 68 C54.34 69.65 53.68 71.3 53 73 C52.15308594 74.22009766 52.15308594 74.22009766 51.2890625 75.46484375 C49.72505606 77.93530409 49.72505606 77.93530409 50.3984375 80.69140625 C50.72070312 81.63886719 51.04296875 82.58632812 51.375 83.5625 C54.19507242 93.51210616 52.94435319 102.91180795 48 112 C44.76441699 116.91261758 41.94098174 119.72693248 36 121 C36.15855469 120.47535156 36.31710937 119.95070313 36.48046875 119.41015625 C39.02773441 110.95210839 41.51234603 102.47572222 44 94 C40.78062306 96.65574715 39.62617483 99.81743104 38.0625 103.625 C37.54085129 104.88041068 37.01871488 106.13561882 36.49609375 107.390625 C36.00238281 108.58171875 35.50867188 109.7728125 35 111 C33.68478727 114.00849884 32.34311551 117.00381925 31 120 C28.36 119.67 25.72 119.34 23 119 C24.46551018 112.03882663 26.28228168 105.20467764 28.1953125 98.35546875 C29.15546779 94.92681567 29.15546779 94.92681567 29 91 C24.84803003 98.80570355 21.55222359 106.5326229 19 115 C17.515 114.505 17.515 114.505 16 114 C14.93204344 108.42289352 15.17377329 103.60563042 16 98 C14.35 98 12.7 98 11 98 C10.01 106.25 9.02 114.5 8 123 C6.35 122.67 4.7 122.34 3 122 C1.81552316 115.23961861 2.27925268 109.21747244 3.1875 102.4375 C3.32986084 101.36975342 3.47222168 100.30200684 3.61889648 99.2019043 C5.9557839 82.50497642 11.43720931 68.99706337 19 54 C19.60326476 52.7931687 20.20619775 51.58617143 20.80859375 50.37890625 C21.20175781 49.59386719 21.59492188 48.80882812 22 48 C9.93275459 63.68741903 4.14381042 80.81918056 0 100 C-0.88945312 98.88431641 -0.88945312 98.88431641 -1.796875 97.74609375 C-3.08347692 96.14240377 -4.38064623 94.5468913 -5.703125 92.97265625 C-8.25811364 89.81763239 -9.87240347 87.75140177 -10.5625 83.6875 C-10 81 -10 81 -8.4140625 79.58984375 C-7.94742188 79.06519531 -7.48078125 78.54054688 -7 78 C-7.0774248 75.98661879 -7.0774248 75.98661879 -7.8125 73.875 C-9.00437411 69.31608152 -9.87633056 64.69260879 -9 60 C-7.61328125 58.234375 -7.61328125 58.234375 -6 57 C-3.875 57.125 -3.875 57.125 -2 58 C-1.67 58.99 -1.34 59.98 -1 61 C-0.34 61 0.32 61 1 61 C0.67 55.39 0.34 49.78 0 44 C-1.98 44.99 -1.98 44.99 -4 46 C-4.99 46 -5.98 46 -7 46 C-9.22375314 38.26981051 -7.93719195 29.86571815 -7 22 C-10.73254051 30.77252459 -9.95083499 38.76659029 -9 48 C-12.9168039 47.45545272 -13.81780067 47.19067372 -16.6875 44.1875 C-21.36252999 37.74353975 -21.65464175 32.89726558 -21 25 C-18.4986529 16.52321259 -12.82261381 11.4008857 -5.8359375 6.421875 C-3.45911582 4.58110246 -1.72759998 2.44743331 0 0 Z M-6 19 C-5 21 -5 21 -5 21 Z M38 67 C37.608125 67.721875 37.21625 68.44375 36.8125 69.1875 C34.1525285 73.31504198 30.3243686 74.86954587 26 77 C28.82703217 78.32363444 28.82703217 78.32363444 30.75 77.1875 C31.4925 76.795625 32.235 76.40375 33 76 C34.19625 75.773125 35.3925 75.54625 36.625 75.3125 C37.73875 74.879375 38.8525 74.44625 40 74 C41.54086322 70.48599332 41.54086322 70.48599332 42 67 C40.68 67 39.36 67 38 67 Z " fill="#F43514" transform="translate(227,13)"/>
<path d="M0 0 C0.99 0.33 1.98 0.66 3 1 C3.91575177 3.57880599 4.59731941 5.96832368 5.1875 8.625 C5.36039551 9.38393555 5.53329102 10.14287109 5.71142578 10.92480469 C7.57353825 19.74919973 8.94128399 29.61294768 5 38 C5.94875 38.103125 6.8975 38.20625 7.875 38.3125 C11 39 11 39 13 42 C13.4125 41.10796875 13.825 40.2159375 14.25 39.296875 C20.01624241 27.60993725 20.01624241 27.60993725 26.07421875 25.38671875 C29.12306963 24.77447486 31.11134572 24.83078279 34 26 C35.5625 27.9375 35.5625 27.9375 36 31 C35.12411999 35.15716185 33.9026922 39.19461561 32 43 C32.71027344 43.13277344 33.42054688 43.26554687 34.15234375 43.40234375 C35.07144531 43.57894531 35.99054688 43.75554688 36.9375 43.9375 C37.85402344 44.11152344 38.77054687 44.28554688 39.71484375 44.46484375 C42 45 42 45 43 46 C43.5 48.5625 43.5 48.5625 43 52 C41.38994946 54.23383975 39.63118043 56.18105251 37.7265625 58.16796875 C35.82059101 60.08821784 35.82059101 60.08821784 34 63 C33.01 63 32.02 63 31 63 C31 63.66 31 64.32 31 65 C33.31 65.33 35.62 65.66 38 66 C37.70985788 69.48170548 37.27243676 70.74228955 34.6875 73.1875 C32.49308876 74.66745177 30.41301628 75.92754832 28 77 C28.33 77.66 28.66 78.32 29 79 C28.278125 79.474375 27.55625 79.94875 26.8125 80.4375 C22.42785412 84.43239958 19.90741599 89.43788426 17.9375 95 C17 97 17 97 15 97.8125 C13 98 13 98 11 98 C10.01 106.25 9.02 114.5 8 123 C6.35 122.67 4.7 122.34 3 122 C1.81552316 115.23961861 2.27925268 109.21747244 3.1875 102.4375 C3.32986084 101.36975342 3.47222168 100.30200684 3.61889648 99.2019043 C5.9557839 82.50497642 11.43720931 68.99706337 19 54 C19.60326476 52.7931687 20.20619775 51.58617143 20.80859375 50.37890625 C21.39833984 49.20134766 21.39833984 49.20134766 22 48 C9.93275459 63.68741903 4.14381042 80.81918056 0 100 C-0.59296875 99.25621094 -1.1859375 98.51242188 -1.796875 97.74609375 C-3.08347692 96.14240377 -4.38064623 94.5468913 -5.703125 92.97265625 C-8.25811364 89.81763239 -9.87240347 87.75140177 -10.5625 83.6875 C-10 81 -10 81 -8.4140625 79.58984375 C-7.94742188 79.06519531 -7.48078125 78.54054688 -7 78 C-7.0774248 75.98661879 -7.0774248 75.98661879 -7.8125 73.875 C-9.00437411 69.31608152 -9.87633056 64.69260879 -9 60 C-7.61328125 58.234375 -7.61328125 58.234375 -6 57 C-3.875 57.125 -3.875 57.125 -2 58 C-1.67 58.99 -1.34 59.98 -1 61 C-0.34 61 0.32 61 1 61 C0.67 55.39 0.34 49.78 0 44 C-1.32 44.66 -2.64 45.32 -4 46 C-4.99 46 -5.98 46 -7 46 C-9.22375314 38.26981051 -7.93719195 29.86571815 -7 22 C-10.73254051 30.77252459 -9.95083499 38.76659029 -9 48 C-12.9168039 47.45545272 -13.81780067 47.19067372 -16.6875 44.1875 C-21.36252999 37.74353975 -21.65464175 32.89726558 -21 25 C-18.4986529 16.52321259 -12.82261381 11.4008857 -5.8359375 6.421875 C-3.45911582 4.58110246 -1.72759998 2.44743331 0 0 Z M-6 19 C-5 21 -5 21 -5 21 Z " fill="#A5D62F" transform="translate(227,13)"/>
<path d="M0 0 C4.3283773 4.04286428 7.639211 9.15650998 11 14 C13.0245738 12.06745228 14.42105792 10.36841312 16 8 C17.8125 7.0625 17.8125 7.0625 20 7 C23.2769294 9.13381449 24.75006004 10.25018012 26 14 C26.07029121 16.57265818 26.09370832 19.11641431 26.0625 21.6875 C26.05798828 22.38939453 26.05347656 23.09128906 26.04882812 23.81445312 C26.03706927 25.54300538 26.01913454 27.27151365 26 29 C27.15048828 27.78763672 27.15048828 27.78763672 28.32421875 26.55078125 C31.08039046 23.92336501 32.2978853 23.31732412 36 23 C38.6067273 25.54466236 39.23328662 27.56583846 39.3984375 31.08984375 C39.41048242 32.70570316 39.40161911 34.32181496 39.375 35.9375 C39.36919922 36.78417236 39.36339844 37.63084473 39.35742188 38.50317383 C39.23265761 44.5952511 38.38862249 50.18017112 36.65625 56.04296875 C34.933141 63.80721586 36.41828751 69.09004246 39.5 76.1875 C43.50051487 85.54005503 43.50051487 85.54005503 43 90 C40.77734375 89.9453125 40.77734375 89.9453125 38 89 C36.29708987 86.62481056 34.93142567 84.42863116 33.5625 81.875 C32.77918154 80.500064 31.99145964 79.12762678 31.19921875 77.7578125 C30.82200684 77.10329102 30.44479492 76.44876953 30.05615234 75.77441406 C26.47279621 69.75411069 22.74409088 66.28817369 16 64 C14.9275 63.855625 13.855 63.71125 12.75 63.5625 C10 62 10 62 8.92578125 59.3828125 C6.13348644 49.04753124 6.13348644 49.04753124 8 45 C10.72522663 43.67623312 13.13954689 42.70946339 16 41.8125 C18.69374584 40.92615579 21.34189219 39.99387584 24 39 C24.495 38.01 24.495 38.01 25 37 C20.56255461 36.94206409 16.12520611 36.90642533 11.6875 36.875 C10.42486328 36.85824219 9.16222656 36.84148437 7.86132812 36.82421875 C6.65283203 36.81777344 5.44433594 36.81132813 4.19921875 36.8046875 C3.08377686 36.79421387 1.96833496 36.78374023 0.8190918 36.77294922 C-2.20678201 36.78677347 -2.20678201 36.78677347 -5 39 C-5.73343428 42.06556598 -5.73343428 42.06556598 -6 45 C-11.875 40.25 -11.875 40.25 -13 38 C-13.35872645 34.12575435 -13.56710729 31.85066094 -11.375 28.5625 C-8.36257342 26.58064041 -6.54231061 26.61496624 -3 27 C-2.34 27.33 -1.68 27.66 -1 28 C-3.24755037 23.76931695 -6.15693835 20.46397018 -9.37890625 16.96484375 C-12.10192975 13.66440804 -13.02982547 11.8351131 -12.875 7.5 C-11.92256805 3.69027219 -11.07793835 2.35371756 -8 0 C-4.51291845 -1.16236052 -3.42514779 -1.2744736 0 0 Z " fill="#A3D42A" transform="translate(173,37)"/>
<path d="M0 0 C20.295 0.495 20.295 0.495 41 1 C41 1.33 41 1.66 41 2 C33.08 2 25.16 2 17 2 C16.34 3.65 15.68 5.3 15 7 C14.43539062 7.81339844 13.87078125 8.62679687 13.2890625 9.46484375 C11.72505606 11.93530409 11.72505606 11.93530409 12.3984375 14.69140625 C12.72070312 15.63886719 13.04296875 16.58632812 13.375 17.5625 C16.19507242 27.51210616 14.94435319 36.91180795 10 46 C6.76441699 50.91261758 3.94098174 53.72693248 -2 55 C-1.84144531 54.47535156 -1.68289063 53.95070312 -1.51953125 53.41015625 C1.02773441 44.95210839 3.51234603 36.47572222 6 28 C2.78062306 30.65574715 1.62617483 33.81743104 0.0625 37.625 C-0.45914871 38.88041068 -0.98128512 40.13561882 -1.50390625 41.390625 C-1.99761719 42.58171875 -2.49132812 43.7728125 -3 45 C-4.31521273 48.00849884 -5.65688449 51.00381925 -7 54 C-9.64 53.67 -12.28 53.34 -15 53 C-13.53448982 46.03882663 -11.71771832 39.20467764 -9.8046875 32.35546875 C-8.84453221 28.92681567 -8.84453221 28.92681567 -9 25 C-13.15196997 32.80570355 -16.44777641 40.5326229 -19 49 C-19.99 48.67 -20.98 48.34 -22 48 C-23.97612584 37.68023173 -21.84828215 29.30973328 -17 20 C-15.15521394 17.31420853 -13.34767119 15.29550072 -11 13 C-10.34 13 -9.68 13 -9 13 C-9 12.34 -9 11.68 -9 11 C-6.45890008 9.53398081 -4.92027804 8.99511906 -1.9375 8.8125 C1.03303522 8.34025897 1.03303522 8.34025897 2.05078125 6.3828125 C2.79524791 4.62573005 3.40644738 2.813633 4 1 C2.68 0.67 1.36 0.34 0 0 Z " fill="#F28817" transform="translate(265,79)"/>
<path d="M0 0 C0.99 0.33 1.98 0.66 3 1 C3.91575177 3.57880599 4.59731941 5.96832368 5.1875 8.625 C5.36039551 9.38393555 5.53329102 10.14287109 5.71142578 10.92480469 C7.57353825 19.74919973 8.94128399 29.61294768 5 38 C4.34 38 3.68 38 3 38 C2.773125 38.5775 2.54625 39.155 2.3125 39.75 C0.64018419 42.6168271 -1.27219731 44.13711036 -4 46 C-4.99 46 -5.98 46 -7 46 C-9.22375314 38.26981051 -7.93719195 29.86571815 -7 22 C-10.73254051 30.77252459 -9.95083499 38.76659029 -9 48 C-12.9168039 47.45545272 -13.81780067 47.19067372 -16.6875 44.1875 C-21.36252999 37.74353975 -21.65464175 32.89726558 -21 25 C-18.4986529 16.52321259 -12.82261381 11.4008857 -5.8359375 6.421875 C-3.45911582 4.58110246 -1.72759998 2.44743331 0 0 Z M-6 19 C-5 21 -5 21 -5 21 Z " fill="#83A03D" transform="translate(227,13)"/>
<path d="M0 0 C1.9375 1.0625 1.9375 1.0625 3 3 C3.23936142 16.40423968 -7.93761192 27.4918526 -15.78833008 37.38696289 C-17.07345991 38.9972335 -17.07345991 38.9972335 -18 41 C-6.78 41 4.44 41 16 41 C16 41.33 16 41.66 16 42 C-1.82 42.33 -19.64 42.66 -38 43 C-36.515 42.505 -36.515 42.505 -35 42 C-34.26852533 40.02278245 -33.62168523 38.01443588 -33 36 C-31.52943255 32.51924099 -29.9213963 29.10610221 -28.3125 25.6875 C-27.90322266 24.78837891 -27.49394531 23.88925781 -27.07226562 22.96289062 C-22.84861128 13.99005811 -17.26422627 5.72768157 -9 0 C-5.45026831 -1.1832439 -3.60040463 -0.90010116 0 0 Z " fill="#F28716" transform="translate(307,32)"/>
<path d="M0 0 C2.375 1.5625 2.375 1.5625 3.375 2.5625 C3.75 5.375 3.75 5.375 3.375 8.5625 C-0.29025324 12.2071233 -3.72288217 13.41908337 -8.6875 14.625 C-9.34290771 14.7892749 -9.99831543 14.9535498 -10.67358398 15.12280273 C-13.79663835 15.90157869 -16.93013631 16.63462313 -20.0625 17.375 C-25.2980154 18.63152369 -29.95872871 19.84050842 -34.625 22.5625 C-33.15049207 12.99495423 -26.07770062 6.2130021 -18.625 0.5625 C-13.01459711 -2.92137921 -5.94203641 -2.35632478 0 0 Z " fill="#EBD16E" transform="translate(336.625,45.4375)"/>
<path d="M0 0 C3.0625 0.1875 3.0625 0.1875 5.0625 2.1875 C5.1875 4.8125 5.1875 4.8125 5.0625 7.1875 C6.0525 7.1875 7.0425 7.1875 8.0625 7.1875 C8.041875 6.218125 8.02125 5.24875 8 4.25 C8.0625 1.1875 8.0625 1.1875 9.0625 0.1875 C12 0 12 0 15.0625 0.1875 C17.0625 2.1875 17.0625 2.1875 17.30541992 4.23461914 C17.29925659 5.46619751 17.29925659 5.46619751 17.29296875 6.72265625 C17.29103516 7.61404297 17.28910156 8.50542969 17.28710938 9.42382812 C17.26874023 10.8227832 17.26874023 10.8227832 17.25 12.25 C17.24935547 13.18650391 17.24871094 14.12300781 17.24804688 15.08789062 C17.20269224 22.04730776 17.20269224 22.04730776 16.0625 23.1875 C13.72305264 22.90019945 11.3885857 22.56813221 9.0625 22.1875 C8.7325 19.8775 8.4025 17.5675 8.0625 15.1875 C7.0725 15.1875 6.0825 15.1875 5.0625 15.1875 C5.083125 16.321875 5.10375 17.45625 5.125 18.625 C5.0625 22.1875 5.0625 22.1875 4.0625 23.1875 C0.5625 22.875 0.5625 22.875 -2.9375 22.1875 C-4.10331918 19.85586164 -4.06655609 18.46596518 -4.0703125 15.87109375 C-4.07160156 15.02482422 -4.07289063 14.17855469 -4.07421875 13.30664062 C-4.07035156 12.42169922 -4.06648437 11.53675781 -4.0625 10.625 C-4.06636719 9.73619141 -4.07023438 8.84738281 -4.07421875 7.93164062 C-4.07292969 7.08666016 -4.07164062 6.24167969 -4.0703125 5.37109375 C-4.06918457 4.59306396 -4.06805664 3.81503418 -4.06689453 3.01342773 C-3.84697509 -0.089926 -3.15285544 0.20124609 0 0 Z " fill="#708D71" transform="translate(215.9375,178.8125)"/>
<path d="M0 0 C3 2.1875 3 2.1875 5 5 C5.56821226 8.97748585 5.10178633 11.58459721 3 15 C3.66 15.99 4.32 16.98 5 18 C5 19.32 5 20.64 5 22 C2.69 22.33 0.38 22.66 -2 23 C-2.99 21.68 -3.98 20.36 -5 19 C-5.66 20.32 -6.32 21.64 -7 23 C-11.51091048 23.3657495 -11.51091048 23.3657495 -13.6496582 21.76635742 C-15.3589971 19.53040245 -15.34914351 18.34079435 -15.29296875 15.55078125 C-15.28330078 14.70322266 -15.27363281 13.85566406 -15.26367188 12.98242188 C-15.23853516 12.10134766 -15.21339844 11.22027344 -15.1875 10.3125 C-15.17396484 9.41982422 -15.16042969 8.52714844 -15.14648438 7.60742188 C-15.11114079 5.40433834 -15.06180493 3.20247418 -15 1 C-9.21151667 -0.79233761 -5.84272219 -1.41356182 0 0 Z " fill="#728E72" transform="translate(153,179)"/>
<path d="M0 0 C6.74693777 0.06177257 6.74693777 0.06177257 10.5625 2.4375 C12.92972737 6.55822913 13.79762274 9.76658641 12.8046875 14.49609375 C11.72341355 17.88284261 10.7093319 19.95503941 8.0625 22.375 C3.56947284 23.97252077 -0.58868285 24.09543905 -5.1875 22.5625 C-6.75 21.375 -6.75 21.375 -7.75 18.375 C-7.84636449 15.48973389 -7.88927947 12.63445222 -7.875 9.75 C-7.87886719 8.96109375 -7.88273437 8.1721875 -7.88671875 7.359375 C-7.87408641 0.00735132 -7.21683776 0.194645 0 0 Z M1.25 6.375 C1.25 9.675 1.25 12.975 1.25 16.375 C2.24 15.715 3.23 15.055 4.25 14.375 C4.75 11.375 4.75 11.375 4.25 8.375 C3.26 7.715 2.27 7.055 1.25 6.375 Z " fill="#738F74" transform="translate(347.75,178.625)"/>
<path d="M0 0 C1.48831242 0.00667405 2.97660807 0.01863442 4.46484375 0.03515625 C5.22345703 0.03966797 5.98207031 0.04417969 6.76367188 0.04882812 C8.64326246 0.06064945 10.52281274 0.07858547 12.40234375 0.09765625 C13.47591312 3.70875323 13.11294338 4.77708049 11.40234375 8.09765625 C11.23546927 10.68119843 11.23546927 10.68119843 11.40234375 13.09765625 C11.40234375 13.75765625 11.40234375 14.41765625 11.40234375 15.09765625 C11.73234375 15.42765625 12.06234375 15.75765625 12.40234375 16.09765625 C12.44298207 17.7638274 12.44506475 19.4315372 12.40234375 21.09765625 C9.47743119 22.75953839 7.26514902 23.41507397 3.90234375 23.47265625 C3.14953125 23.50101563 2.39671875 23.529375 1.62109375 23.55859375 C-1.67529336 22.87378094 -2.6973445 21.88620361 -4.59765625 19.09765625 C-5.10343303 16.01940709 -5.02009971 13.0203347 -4.91015625 9.91015625 C-4.90048828 9.07806641 -4.89082031 8.24597656 -4.88085938 7.38867188 C-4.74477365 0.12879407 -4.74477365 0.12879407 0 0 Z " fill="#769277" transform="translate(168.59765625,178.90234375)"/>
<path d="M0 0 C1 1.6875 1 1.6875 0.6875 3.6875 C0.460625 4.3475 0.23375 5.0075 0 5.6875 C-0.2773501 8.87240007 -0.2773501 8.87240007 2 11.6875 C1.77706795 17.9295974 1.77706795 17.9295974 -0.7421875 20.38671875 C-3.39012229 21.91225904 -4.96473379 22.06015009 -8 22 C-8.845625 21.99613281 -9.69125 21.99226563 -10.5625 21.98828125 C-13.11537729 21.67326274 -14.79013935 20.97146996 -17 19.6875 C-17 17.7075 -17 15.7275 -17 13.6875 C-15.35 13.3575 -13.7 13.0275 -12 12.6875 C-12.639375 12.31625 -13.27875 11.945 -13.9375 11.5625 C-16 9.6875 -16 9.6875 -17 6.8125 C-17 3.6875 -17 3.6875 -15.3125 0.875 C-10.93219173 -3.26853485 -5.16698025 -3.39083079 0 0 Z M-8 5.6875 C-4 6.6875 -4 6.6875 -4 6.6875 Z " fill="#7A957B" transform="translate(204,180.3125)"/>
<path d="M0 0 C5.61 0 11.22 0 17 0 C17 1.98 17 3.96 17 6 C16.34 6.66 15.68 7.32 15 8 C15.34786708 9.97536745 15.34786708 9.97536745 16 12 C16 12.99 16 13.98 16 15 C16.31088368 16.67099977 16.64080332 18.33871537 17 20 C15.0882704 21.99484828 13.60004201 22.9350135 10.8359375 23.234375 C7.24745057 23.25775277 4.43020796 23.14340265 1 22 C-0.20029908 19.59940183 -0.11459743 18.10639351 -0.09765625 15.4296875 C-0.09443359 14.53378906 -0.09121094 13.63789063 -0.08789062 12.71484375 C-0.07951172 11.77769531 -0.07113281 10.84054688 -0.0625 9.875 C-0.05798828 8.93011719 -0.05347656 7.98523438 -0.04882812 7.01171875 C-0.03702375 4.6744523 -0.01908799 2.33721831 0 0 Z " fill="#749075" transform="translate(293,179)"/>
<path d="M0 0 C2 2 2 2 2.25 4.5 C2 7 2 7 0 9 C0.495 9.37125 0.99 9.7425 1.5 10.125 C3 12 3 12 3.5 14.875 C3 18 3 18 1.0625 20.875 C-3.05642369 23.73302868 -6.13104336 23.80122071 -11 23 C-14.0625 21.8125 -14.0625 21.8125 -16 20 C-16.3125 17.3125 -16.3125 17.3125 -16 15 C-14.68 14.34 -13.36 13.68 -12 13 C-12.495 12.649375 -12.99 12.29875 -13.5 11.9375 C-15.79395236 8.97447821 -15.38888282 6.62957303 -15 3 C-13.61231093 0.9184664 -12.56894125 0.25286278 -10.3125 -0.75 C-6.71001033 -1.13945834 -3.5750658 -0.63428587 0 0 Z M-10 14 C-6 15 -6 15 -6 15 Z " fill="#7A957B" transform="translate(382,179)"/>
<path d="M0 0 C5.61 0 11.22 0 17 0 C17 6 17 6 15.5 7.875 C15.005 8.24625 14.51 8.6175 14 9 C14.350625 9.598125 14.70125 10.19625 15.0625 10.8125 C16 13 16 13 15 16 C12.69 16.33 10.38 16.66 8 17 C8 18.65 8 20.3 8 22 C5.6875 22.6875 5.6875 22.6875 3 23 C1.3503418 21.8112793 1.3503418 21.8112793 0 20 C-0.34057617 17.82348633 -0.34057617 17.82348633 -0.29296875 15.33203125 C-0.28330078 14.43935547 -0.27363281 13.54667969 -0.26367188 12.62695312 C-0.23853516 11.69818359 -0.21339844 10.76941406 -0.1875 9.8125 C-0.17396484 8.87212891 -0.16042969 7.93175781 -0.14648438 6.96289062 C-0.11113603 4.64168265 -0.05732915 2.32076912 0 0 Z " fill="#728F73" transform="translate(255,179)"/>
<path d="M0 0 C5.61 0 11.22 0 17 0 C17 6 17 6 15.5 7.875 C15.005 8.24625 14.51 8.6175 14 9 C14.350625 9.598125 14.70125 10.19625 15.0625 10.8125 C16 13 16 13 15 16 C12.69 16.33 10.38 16.66 8 17 C8 18.65 8 20.3 8 22 C5.6875 22.6875 5.6875 22.6875 3 23 C1.3503418 21.8112793 1.3503418 21.8112793 0 20 C-0.34057617 17.82348633 -0.34057617 17.82348633 -0.29296875 15.33203125 C-0.28330078 14.43935547 -0.27363281 13.54667969 -0.26367188 12.62695312 C-0.23853516 11.69818359 -0.21339844 10.76941406 -0.1875 9.8125 C-0.17396484 8.87212891 -0.16042969 7.93175781 -0.14648438 6.96289062 C-0.11113603 4.64168265 -0.05732915 2.32076912 0 0 Z " fill="#728F73" transform="translate(115,179)"/>
<path d="M0 0 C2.3125 -0.25 2.3125 -0.25 5 0 C7.14962714 2.19018614 7.94408929 3.50798579 8.29296875 6.578125 C8.25816406 7.45984375 8.22335937 8.3415625 8.1875 9.25 C8.16042969 10.14203125 8.13335937 11.0340625 8.10546875 11.953125 C8.07066406 12.62859375 8.03585937 13.3040625 8 14 C10.97 14 13.94 14 17 14 C17.125 16.875 17.125 16.875 17 20 C14.16594345 22.83405655 11.95031797 22.67620345 8 23 C1.46428571 22.46428571 1.46428571 22.46428571 -1 20 C-2.59725272 13.45126385 -3.15796169 6.11855078 0 0 Z " fill="#759176" transform="translate(317,179)"/>
<path d="M0 0 C2.875 -0.125 2.875 -0.125 6 0 C9.17858563 3.17858563 9.15316478 6.45192645 9.1875 10.8125 C9.15466117 15.24574156 8.45201347 18.82546128 7 23 C4.125 22.8125 4.125 22.8125 1 22 C-1.23846179 18.01804981 -1.24000437 14.37128349 -1.1875 9.875 C-1.18105469 8.65554687 -1.17460937 7.43609375 -1.16796875 6.1796875 C-1 3 -1 3 0 0 Z " fill="#799479" transform="translate(278,179)"/>
<path d="M0 0 C0.99 0.33 1.98 0.66 3 1 C3.84242547 9.46169581 1.6449875 15.4451011 -2 23 C-2.57192313 24.23292984 -3.14352741 25.46600762 -3.71484375 26.69921875 C-6.53692939 32.63705298 -9.07771275 37.49071287 -14 42 C-13.30220363 36.88629823 -11.17236895 32.40363459 -9.1875 27.6875 C-5.9577004 19.86158549 -3.51673739 12.15331807 -1.69140625 3.89453125 C-1 1 -1 1 0 0 Z " fill="#FEEEEC" transform="translate(316,81)"/>
<path d="M0 0 C0.94552734 0.16242188 0.94552734 0.16242188 1.91015625 0.328125 C4.22377427 3.79855203 4.42036353 5.24646673 3.91015625 9.328125 C2.28515625 11.265625 2.28515625 11.265625 -0.08984375 12.328125 C-3.21484375 12.203125 -3.21484375 12.203125 -6.08984375 11.328125 C-8.08984375 8.328125 -8.08984375 8.328125 -7.77734375 4.703125 C-6.67536757 -0.70657624 -5.2523859 0.19064922 0 0 Z M-3.08984375 5.328125 C-3.08984375 5.988125 -3.08984375 6.648125 -3.08984375 7.328125 C-2.42984375 7.328125 -1.76984375 7.328125 -1.08984375 7.328125 C-1.08984375 6.668125 -1.08984375 6.008125 -1.08984375 5.328125 C-1.74984375 5.328125 -2.40984375 5.328125 -3.08984375 5.328125 Z " fill="#779378" transform="translate(252.08984375,208.671875)"/>
<path d="M0 0 C6.0546875 -0.1953125 6.0546875 -0.1953125 8 0 C10 2 10 2 10.1953125 4.1640625 C10.17210937 4.97617188 10.14890625 5.78828125 10.125 6.625 C10.10695312 7.44226563 10.08890625 8.25953125 10.0703125 9.1015625 C10.03550781 10.04128906 10.03550781 10.04128906 10 11 C6.20241779 12.01268859 3.79758221 12.01268859 0 11 C-1.28571429 3.57142857 -1.28571429 3.57142857 0 0 Z " fill="#7D977E" transform="translate(225,209)"/>
<path d="M0 0 C6.93359375 -0.09765625 6.93359375 -0.09765625 9 0 C10 1 10 1 10.09765625 3.28515625 C10.08605469 4.20167969 10.07445312 5.11820313 10.0625 6.0625 C10.05347656 6.98160156 10.04445313 7.90070313 10.03515625 8.84765625 C10.02355469 9.55792969 10.01195312 10.26820313 10 11 C8.68 11 7.36 11 6 11 C4.948125 11.2784375 4.948125 11.2784375 3.875 11.5625 C2 12 2 12 0 11 C0 7.37 0 3.74 0 0 Z " fill="#7B967C" transform="translate(302,209)"/>
<path d="M0 0 C2.01822917 0.06510417 4.03645833 0.13020833 6.0546875 0.1953125 C6.0546875 1.5153125 6.0546875 2.8353125 6.0546875 4.1953125 C4.4046875 4.1953125 2.7546875 4.1953125 1.0546875 4.1953125 C1.3846875 4.8553125 1.7146875 5.5153125 2.0546875 6.1953125 C3.7046875 5.8653125 5.3546875 5.5353125 7.0546875 5.1953125 C6.7246875 7.1753125 6.3946875 9.1553125 6.0546875 11.1953125 C0.79978554 12.50903799 0.79978554 12.50903799 -2.3203125 11.1953125 C-3.9453125 9.1953125 -3.9453125 9.1953125 -4.3203125 5.6328125 C-3.74686289 0.37619105 -3.74686289 0.37619105 0 0 Z " fill="#869E86" transform="translate(208.9453125,208.8046875)"/>
<path d="M0 0 C2.97 0 5.94 0 9 0 C9 3.63 9 7.26 9 11 C2.25 12.125 2.25 12.125 0 11 C0 7.37 0 3.74 0 0 Z " fill="#849D84" transform="translate(284,209)"/>
<path d="M0 0 C2.9375 0.8125 2.9375 0.8125 4.9375 2.8125 C4.6875 6.375 4.6875 6.375 3.9375 9.8125 C1.17499964 11.19375018 -1.00981099 11.00329306 -4.0625 10.8125 C-6.0625 8.8125 -6.0625 8.8125 -6.375 5.875 C-6.0625 2.8125 -6.0625 2.8125 -4.9375 0.875 C-3.0625 -0.1875 -3.0625 -0.1875 0 0 Z " fill="#ECD57A" transform="translate(193.0625,24.1875)"/>
<path d="M0 0 C0 1.32 0 2.64 0 4 C-0.639375 4.12375 -1.27875 4.2475 -1.9375 4.375 C-2.9584375 4.684375 -2.9584375 4.684375 -4 5 C-4.33 5.66 -4.66 6.32 -5 7 C-3.35 6.67 -1.7 6.34 0 6 C0.33 6.99 0.66 7.98 1 9 C-0.125 10.5625 -0.125 10.5625 -2 12 C-5.64734979 11.77669287 -7.38372835 11.61627165 -10 9 C-10.25 5.5 -10.25 5.5 -10 2 C-6.80505194 -1.19494806 -4.22040044 -1.35655728 0 0 Z " fill="#879F88" transform="translate(275,209)"/>
<path d="M0 0 C2.97 0 5.94 0 9 0 C9.36914062 8.49023438 9.36914062 8.49023438 7.6875 10.8125 C6 12 6 12 2.8125 11.6875 C1.884375 11.460625 0.95625 11.23375 0 11 C0 7.37 0 3.74 0 0 Z " fill="#7D987E" transform="translate(169,209)"/>
<path d="M0 0 C0.33 0.33 0.66 0.66 1 1 C0.28 7.72 0.28 7.72 -1 9 C-6.21848739 9.45378151 -6.21848739 9.45378151 -8.9375 7.875 C-10 6 -10 6 -9.9375 2.9375 C-9 0 -9 0 -7.25 -1.5 C-4.24023466 -2.16883674 -2.69957379 -1.38626762 0 0 Z " fill="#ECD57A" transform="translate(279,33)"/>
<path d="M0 0 C7.25 0 7.25 0 11 1 C10.57781184 2.6498275 10.13675575 4.29483665 9.6875 5.9375 C9.44386719 6.85402344 9.20023437 7.77054688 8.94921875 8.71484375 C8.63597656 9.46894531 8.32273437 10.22304687 8 11 C7.01 11.33 6.02 11.66 5 12 C2.43470546 10.71735273 2.33500137 9.77227651 1.375 7.125 C1.11460937 6.42632812 0.85421875 5.72765625 0.5859375 5.0078125 C0 3 0 3 0 0 Z " fill="#869E86" transform="translate(321,209)"/>
<path d="M0 0 C3.625 0.375 3.625 0.375 7 1 C7.93065133 3.60582371 8.14917407 4.64198224 7.0625 7.25 C6.711875 7.8275 6.36125 8.405 6 9 C3.125 9.125 3.125 9.125 0 9 C-2 7 -2 7 -2.25 4.5 C-2 2 -2 2 0 0 Z " fill="#ECD579" transform="translate(253,19)"/>
<path d="M0 0 C2.4375 0.1875 2.4375 0.1875 3.4375 1.1875 C3.625 3.625 3.625 3.625 3.4375 6.1875 C2.7775 6.8475 2.1175 7.5075 1.4375 8.1875 C-1.1875 7.8125 -1.1875 7.8125 -3.5625 7.1875 C-4.1875 4.8125 -4.1875 4.8125 -4.5625 2.1875 C-2.5625 0.1875 -2.5625 0.1875 0 0 Z " fill="#EDD883" transform="translate(281.5625,18.8125)"/>
<path d="M0 0 C1.23556641 0.01740234 1.23556641 0.01740234 2.49609375 0.03515625 C3.32238281 0.04417969 4.14867187 0.05320313 5 0.0625 C5.63808594 0.07410156 6.27617187 0.08570313 6.93359375 0.09765625 C6.93359375 1.41765625 6.93359375 2.73765625 6.93359375 4.09765625 C3.97694856 5.57597885 1.19129638 5.15798408 -2.06640625 5.09765625 C-2.62890625 3.16015625 -2.62890625 3.16015625 -3.06640625 1.09765625 C-2.06640625 0.09765625 -2.06640625 0.09765625 0 0 Z " fill="#849D85" transform="translate(189.06640625,212.90234375)"/>
<path d="M0 0 C0.33 0.99 0.66 1.98 1 3 C0.00390625 4.82421875 0.00390625 4.82421875 -1.4375 6.6875 C-1.91058594 7.31011719 -2.38367188 7.93273437 -2.87109375 8.57421875 C-3.24363281 9.04472656 -3.61617188 9.51523438 -4 10 C-5 7 -5 7 -3.6875 3.875 C-2 1 -2 1 0 0 Z " fill="#FDE3DE" transform="translate(307,113)"/>
<path d="M0 0 C0 0.33 0 0.66 0 1 C-0.94875 1.28875 -1.8975 1.5775 -2.875 1.875 C-6.05211578 2.76825109 -6.05211578 2.76825109 -8 5 C-8.39764263 6.98821313 -8.73775349 8.98944339 -9 11 C-9.33 11 -9.66 11 -10 11 C-10.48275862 4.72413793 -10.48275862 4.72413793 -8.375 1.5625 C-5.397402 -0.39644605 -3.49644963 -0.31785906 0 0 Z " fill="#C5E47A" transform="translate(170,64)"/>
<path d="M0 0 C2.0625 0.4375 2.0625 0.4375 4 1 C2.90716423 2.03295436 1.80029421 3.05107835 0.6875 4.0625 C0.07261719 4.63097656 -0.54226562 5.19945313 -1.17578125 5.78515625 C-1.77777344 6.18605469 -2.37976563 6.58695312 -3 7 C-3.99 6.67 -4.98 6.34 -6 6 C-4 4 -2 2 0 0 Z " fill="#C5E57A" transform="translate(205,60)"/>
<path d="M0 0 C2.05078125 0.03255208 4.1015625 0.06510417 6.15234375 0.09765625 C6.15234375 0.42765625 6.15234375 0.75765625 6.15234375 1.09765625 C5.03859375 1.32453125 3.92484375 1.55140625 2.77734375 1.78515625 C-1.00803998 2.70389283 -1.00803998 2.70389283 -2.28515625 5.72265625 C-2.47078125 6.50640625 -2.65640625 7.29015625 -2.84765625 8.09765625 C-3.17765625 8.09765625 -3.50765625 8.09765625 -3.84765625 8.09765625 C-2.83612374 0.14990083 -2.83612374 0.14990083 0 0 Z " fill="#9FB29F" transform="translate(247.84765625,208.90234375)"/>
</svg>
